<svg viewBox="-4 -3 20 20" xmlns="http://www.w3.org/2000/svg"><path fill-rule="evenodd" clip-rule="evenodd" d="M1.91 4.436c.286.007.511.242.504.525l-.516-.012-.516-.013a.515.515 0 0 1 .529-.5Zm-.012.513-.516-.013v.03l-.002.082a93.601 93.601 0 0 0-.02 1.347 61.27 61.27 0 0 0 .023 2.676c.034.89.125 2.04.201 2.898a1.872 1.872 0 0 0 1.874 1.698h5.084c.97 0 1.789-.73 1.874-1.698.076-.858.168-2.009.202-2.898.03-.813.03-1.849.023-2.676-.004-.415-.01-.779-.014-1.04l-.007-.307-.002-.082v-.03a.515.515 0 0 0-.529-.5.514.514 0 0 0-.503.525l.329-.008-.33.008.002.028.001.082a93.443 93.443 0 0 1 .02 1.334c.008.824.008 1.84-.022 2.627a63.33 63.33 0 0 1-.198 2.847.842.842 0 0 1-.846.762H3.458a.842.842 0 0 1-.846-.762 63.33 63.33 0 0 1-.198-2.847c-.03-.788-.03-1.803-.023-2.627a113.604 113.604 0 0 1 .02-1.334l.003-.082v-.028l-.516-.012ZM.667 2.898c0-.284.23-.513.516-.513h9.634c.285 0 .516.23.516.513a.514.514 0 0 1-.516.512H1.183a.514.514 0 0 1-.516-.512Z"/><path fill-rule="evenodd" clip-rule="evenodd" d="M3.504 1.329c.33-.613.971-.996 1.67-.996h1.652c.699 0 1.34.383 1.67.996l.712 1.327c.134.25.04.56-.212.694a.518.518 0 0 1-.699-.211l-.712-1.327a.861.861 0 0 0-.76-.453h-1.65a.861.861 0 0 0-.76.453l-.712 1.327a.518.518 0 0 1-.698.211.511.511 0 0 1-.213-.694l.712-1.327Z"/></svg>
